# xmcd
#
# Track frame offsets:
#	150
#	17090
#	33578
#	54394
#	76842
#	93778
#	110065
#	122026
#	142879
#	163873
#	183791
#	216103
#	246388
#
# Disc length: 3499 seconds
# Revision: 0
# Processed by: cddbd v1.5.2PL0 Copyright (c) Steve Scherf et al.
# Submitted via: dBpowerAMP V12.0
#
DISCID=a90da90d
DTITLE=James Talley - Journey: The Second Voyage
DYEAR=2009
DGENRE=Folk
TTITLE0=Down on the Corner
TTITLE1=Little Egypt Land
TTITLE2=Someone Who Loves You
TTITLE3=Deep Country Blues
TTITLE4=Forty Hours
TTITLE5=Give My Love to Marie
TTITLE6=Hear That Lonesome Whistle
TTITLE7=Nothin' But the Blues
TTITLE8=Sea of Cortez
TTITLE9=Open All Night
TTITLE10=Streets of Babylon
TTITLE11=Nashville City Blues
TTITLE12=Calico Gypsy
EXTD=
EXTT0=
EXTT1=
EXTT2=
EXTT3=
EXTT4=
EXTT5=
EXTT6=
EXTT7=
EXTT8=
EXTT9=
EXTT10=
EXTT11=
EXTT12=
PLAYORDER=
